# xmcd
#
# Track frame offsets: 
#        150
#        14283
#        29959
#        45940
#        62392
#        77793
#        102181
#        117270
#        135791
#        149792
#        166941
#        185512
#        203308
#        224871
#
# Disc length: 3226 seconds
#
# Revision: 0
# Processed by: cddbd v1.5.2PL0 Copyright (c) Steve Scherf et al.
# Submitted via: ExactAudioCopyFreeDBPlugin 1.0
#
DISCID=c10c980e
DTITLE=Sugar Brown - Poor Lazarus
DYEAR=2015
DGENRE=blues
TTITLE0=Walkin' With Frankie
TTITLE1=Meet Me In The Country
TTITLE2=What A Comrade Left Behind
TTITLE3=Get Behind The Mule
TTITLE4=Goin' Down South
TTITLE5=Poor Lazarus
TTITLE6=Blue Lights Hooker
TTITLE7=Tokyo Nagaremono
TTITLE8=Train Sixty-Four
TTITLE9=The Mad Gardener's Song: Part I
TTITLE10=Burn It Down
TTITLE11=The Mad Gardener's Song: Part II
TTITLE12=Not Your Backdoor Man
TTITLE13=Weak Brain And Narrow Mind
EXTD=
EXTT0=
EXTT1=
EXTT2=
EXTT3=
EXTT4=
EXTT5=
EXTT6=
EXTT7=
EXTT8=
EXTT9=
EXTT10=
EXTT11=
EXTT12=
EXTT13=
PLAYORDER=
